<svg width="95" height="37" viewBox="0 0 95 37" fill="none" xmlns="http://www.w3.org/2000/svg">
<path d="M8.47288 0V14.0416L4.86733 17.6472C4.39003 18.1245 4.39326 18.8953 4.86733 19.3693C5.36398 19.866 6.13476 19.866 6.60883 19.3919L8.47288 17.5279V23.5779C6.30246 24.7486 3.52896 24.4197 1.69716 22.5879C-0.56356 20.3271 -0.560335 16.6894 1.67459 14.4544L4.49323 11.639L4.55451 11.5745C8.43418 7.61422 8.47288 0 8.47288 0Z" fill="#9E9E9E"/>
<path d="M17.8671 21.8655L15.0485 24.6809C15.0485 24.6809 15.0259 24.7035 15.013 24.7164C11.1043 28.667 11.0656 36.3199 11.0656 36.3199V22.2783L14.6711 18.6695C15.1484 18.1954 15.1452 17.4247 14.6711 16.9506C14.1745 16.4507 13.4037 16.4507 12.9296 16.928L11.0656 18.792V12.742C13.236 11.5713 16.0095 11.9035 17.8413 13.732C20.102 15.9928 20.0988 19.6305 17.8639 21.8687L17.8671 21.8655Z" fill="#9E9E9E"/>
<path d="M83.5805 17.582H86.6944C86.8259 17.8263 87.0748 17.9953 87.4412 18.0893C87.8169 18.1832 88.3523 18.2302 89.0474 18.2302C89.5829 18.2302 89.9774 18.202 90.231 18.1456C90.494 18.0893 90.6631 18.0141 90.7382 17.9202C90.8228 17.8263 90.8651 17.7276 90.8651 17.6243C90.8651 17.4646 90.7758 17.3566 90.5973 17.3002C90.4283 17.2345 90.1371 17.1969 89.7238 17.1875C89.3105 17.1687 88.7422 17.1593 88.0189 17.1593C87.3332 17.1593 86.7179 17.1311 86.1731 17.0748C85.6377 17.009 85.1821 16.9104 84.8064 16.7789C84.4306 16.638 84.1441 16.4454 83.9469 16.2012C83.7496 15.957 83.651 15.6517 83.651 15.2854C83.651 14.8345 83.7966 14.4587 84.0878 14.1582C84.379 13.8482 84.7735 13.6086 85.2713 13.4396C85.7692 13.2611 86.3422 13.1343 86.9903 13.0591C87.6478 12.984 88.3336 12.9464 89.0474 12.9464C90.231 12.9464 91.1985 13.0685 91.95 13.3128C92.7014 13.5476 93.2557 13.867 93.6126 14.2709C93.9695 14.6748 94.1433 15.1304 94.1339 15.6376H91.1046C91.0013 15.3934 90.804 15.2243 90.5128 15.1304C90.231 15.0364 89.7426 14.9895 89.0474 14.9895C88.3899 14.9895 87.9108 15.0411 87.6103 15.1445C87.3191 15.2384 87.1735 15.3934 87.1735 15.6094C87.1735 15.7503 87.2439 15.8583 87.3848 15.9335C87.5351 15.9992 87.8122 16.0462 88.2161 16.0744C88.6294 16.1026 89.2306 16.1167 90.0197 16.1167C90.5645 16.1167 91.0952 16.1355 91.6118 16.173C92.1379 16.2106 92.6075 16.2904 93.0208 16.4126C93.4435 16.5347 93.777 16.7225 94.0212 16.9762C94.2654 17.2298 94.3876 17.5773 94.3876 18.0188C94.3876 18.5542 94.1668 18.991 93.7253 19.3292C93.2932 19.658 92.678 19.8975 91.8795 20.0478C91.0811 20.1981 90.1371 20.2732 89.0474 20.2732C88.0987 20.2732 87.2956 20.2122 86.6381 20.09C85.9899 19.9679 85.4592 19.8082 85.0459 19.611C84.6326 19.4043 84.3132 19.1836 84.0878 18.9488C83.8717 18.7045 83.7261 18.465 83.651 18.2302C83.5852 17.9859 83.5617 17.7699 83.5805 17.582Z" fill="#9E9E9E"/>
<path d="M78.186 18.7656L76.7206 18.7375L79.7782 13.1578H83.512L79.1582 20.0619H75.9739L72.4091 14.7077L74.0717 14.7218L70.366 20.0619H67.1817L63.0533 13.1578H66.7731L69.6474 18.7375H68.1962L71.3805 13.1578H75.1144L78.186 18.7656Z" fill="#9E9E9E"/>
<path d="M56.2853 20.2732C54.7917 20.2732 53.5471 20.1511 52.5514 19.9069C51.5651 19.6627 50.823 19.2728 50.3252 18.7374C49.8367 18.202 49.5925 17.4975 49.5925 16.6239C49.5925 15.7503 49.8367 15.0458 50.3252 14.5104C50.823 13.9656 51.5651 13.5711 52.5514 13.3268C53.5471 13.0732 54.7917 12.9464 56.2853 12.9464C57.7694 12.9464 58.9999 13.0732 59.9768 13.3268C60.9631 13.5711 61.7005 13.9656 62.189 14.5104C62.6774 15.0458 62.9217 15.7503 62.9217 16.6239C62.9217 17.4975 62.6774 18.202 62.189 18.7374C61.7005 19.2728 60.9631 19.6627 59.9768 19.9069C58.9999 20.1511 57.7694 20.2732 56.2853 20.2732ZM56.2853 18.2302C56.9804 18.2302 57.5628 18.1738 58.0324 18.0611C58.5021 17.939 58.859 17.7605 59.1033 17.5257C59.3475 17.2814 59.4696 16.9809 59.4696 16.6239C59.4696 16.267 59.3475 15.9664 59.1033 15.7221C58.8684 15.4779 58.5162 15.2947 58.0465 15.1726C57.5768 15.0505 56.9898 14.9895 56.2853 14.9895C55.5902 14.9895 54.9984 15.0505 54.5099 15.1726C54.0309 15.2947 53.6645 15.4779 53.4109 15.7221C53.1667 15.957 53.0446 16.2576 53.0446 16.6239C53.0446 16.9809 53.1667 17.2814 53.4109 17.5257C53.6551 17.7605 54.0168 17.939 54.4958 18.0611C54.9843 18.1738 55.5808 18.2302 56.2853 18.2302Z" fill="#9E9E9E"/>
<path d="M35.6708 13.1578H39.0524V20.0619H35.6708V13.1578ZM44.1248 12.9464C44.679 12.9464 45.2144 13.0075 45.7311 13.1296C46.2477 13.2423 46.708 13.4396 47.1119 13.7214C47.5252 14.0032 47.854 14.3883 48.0982 14.8767C48.3424 15.3652 48.4645 15.9805 48.4645 16.7225V20.0619H45.0829V17.1452C45.0829 16.4407 44.8998 15.9429 44.5334 15.6517C44.1671 15.3511 43.5049 15.2008 42.5467 15.2008C42.0395 15.2008 41.5463 15.2572 41.0673 15.3699C40.5976 15.4826 40.1749 15.6188 39.7992 15.7785C39.4234 15.9288 39.1276 16.0791 38.9115 16.2294L38.8833 15.694C38.9209 15.5249 39.0477 15.2901 39.2638 14.9895C39.4892 14.6795 39.8133 14.3695 40.236 14.0595C40.6587 13.7495 41.1894 13.4865 41.8281 13.2705C42.4763 13.0544 43.2418 12.9464 44.1248 12.9464Z" fill="#9E9E9E"/>
<path d="M23.7394 17.582H26.8533C26.9848 17.8263 27.2338 17.9953 27.6001 18.0893C27.9758 18.1832 28.5113 18.2302 29.2064 18.2302C29.7418 18.2302 30.1363 18.202 30.3899 18.1456C30.6529 18.0893 30.822 18.0141 30.8972 17.9202C30.9817 17.8263 31.024 17.7276 31.024 17.6243C31.024 17.4646 30.9347 17.3566 30.7563 17.3002C30.5872 17.2345 30.296 17.1969 29.8827 17.1875C29.4694 17.1687 28.9011 17.1593 28.1778 17.1593C27.4921 17.1593 26.8768 17.1311 26.332 17.0748C25.7966 17.009 25.341 16.9104 24.9653 16.7789C24.5895 16.638 24.303 16.4454 24.1058 16.2012C23.9085 15.957 23.8099 15.6517 23.8099 15.2854C23.8099 14.8345 23.9555 14.4587 24.2467 14.1582C24.5379 13.8482 24.9324 13.6086 25.4302 13.4396C25.9281 13.2611 26.5011 13.1343 27.1492 13.0591C27.8068 12.984 28.4925 12.9464 29.2064 12.9464C30.3899 12.9464 31.3574 13.0685 32.1089 13.3128C32.8604 13.5476 33.4146 13.867 33.7715 14.2709C34.1285 14.6748 34.3023 15.1304 34.2929 15.6376H31.2635C31.1602 15.3934 30.9629 15.2243 30.6717 15.1304C30.3899 15.0364 29.9015 14.9895 29.2064 14.9895C28.5488 14.9895 28.0698 15.0411 27.7692 15.1445C27.478 15.2384 27.3324 15.3934 27.3324 15.6094C27.3324 15.7503 27.4028 15.8583 27.5437 15.9335C27.694 15.9992 27.9711 16.0462 28.3751 16.0744C28.7884 16.1026 29.3895 16.1167 30.1786 16.1167C30.7234 16.1167 31.2541 16.1355 31.7708 16.173C32.2968 16.2106 32.7664 16.2904 33.1797 16.4126C33.6024 16.5347 33.9359 16.7225 34.1801 16.9762C34.4244 17.2298 34.5465 17.5773 34.5465 18.0188C34.5465 18.5542 34.3257 18.991 33.8843 19.3292C33.4522 19.658 32.8369 19.8975 32.0385 20.0478C31.24 20.1981 30.296 20.2732 29.2064 20.2732C28.2576 20.2732 27.4545 20.2122 26.797 20.09C26.1488 19.9679 25.6181 19.8082 25.2048 19.611C24.7915 19.4043 24.4721 19.1836 24.2467 18.9488C24.0306 18.7045 23.885 18.465 23.8099 18.2302C23.7441 17.9859 23.7207 17.7699 23.7394 17.582Z" fill="#9E9E9E"/>
</svg>
