<svg width="268" height="22" viewBox="0 0 268 22" fill="none" xmlns="http://www.w3.org/2000/svg">
<path d="M18.1979 2.70146C17.2624 3.23991 16.1674 3.82998 15.2625 4.39613C14.5082 3.92817 13.6561 3.46301 12.8812 3.02041L9.33819 0.982429C8.81747 0.682597 8.13118 0.313847 7.63174 0C6.12232 0.913421 4.46623 1.81634 2.92837 2.70344L0.968045 3.83536C0.694534 3.99308 0.262846 4.26371 0.00139398 4.38811L0.00360124 8.79124L8.53787 13.6848L10.368 14.7371C10.6845 14.9201 11.1498 15.2091 11.4632 15.3592C11.1712 15.4836 10.2515 16.0334 9.95682 16.2081C9.20462 16.6544 8.36592 17.0961 7.63179 17.554C7.39427 17.3901 7.02146 17.1891 6.76519 17.042L0 13.1581C0.035943 14.572 0.00413567 16.1299 0.00546001 17.5536C1.50691 18.3824 3.05474 19.3063 4.54836 20.1629L6.51096 21.2901C6.85385 21.4876 7.30066 21.7302 7.62556 21.9439L12.3639 19.2194C13.3255 18.6664 14.3251 18.1102 15.2741 17.5427C15.3895 17.6373 15.8615 17.8965 16.0099 17.9821L17.5548 18.8672L22.8873 21.9386C24.7632 20.9002 26.6264 19.7601 28.5023 18.7148C29.1621 18.3473 29.8671 17.8945 30.5288 17.558L30.5262 13.1538C30.3317 13.0652 29.7881 12.7344 29.5757 12.6133C29.5234 12.555 28.1642 11.8031 27.9637 11.686C27.6773 11.5253 27.3376 11.3469 27.0674 11.1708L26.9482 11.0986C26.7779 11.0127 26.592 10.8867 26.4124 10.7915C25.974 10.5232 25.431 10.2781 25.0198 9.97631C24.48 9.71671 23.4257 9.0892 22.8927 8.76701C22.3 9.14824 21.4715 9.58977 20.842 9.93817C20.6155 10.054 20.0509 10.4049 19.8135 10.5495L19.6327 10.6344L19.5862 10.6663C19.4331 10.7566 19.2075 10.898 19.0516 10.9642C19.3332 11.1224 19.6171 11.2786 19.8904 11.4505L19.9094 11.4478L19.9331 11.4767C20.1415 11.5851 20.3481 11.6969 20.5528 11.812L20.5586 11.8318C20.8002 11.953 21.0117 12.0824 21.2424 12.2216L21.3246 12.2675C21.5688 12.4143 22.2103 12.7508 22.392 12.8993C22.4615 12.9534 22.4733 12.9546 22.5583 12.9848C22.8922 13.139 23.6901 13.6233 24.0321 13.8206L26.7035 15.3605C26.1907 15.6215 25.5623 16.0066 25.0534 16.3031C24.3666 16.7035 23.5555 17.1299 22.8927 17.5529C22.7468 17.4486 22.4308 17.2772 22.2665 17.1822C21.8369 16.9312 21.4048 16.6845 20.9701 16.4419L16.7615 14.0173L15.4103 13.242C15.1732 13.1053 14.8678 12.9394 14.6477 12.7874C14.489 12.7476 13.9246 12.3596 13.7501 12.2659C13.4242 12.0911 13.1021 11.9203 12.7859 11.7284L12.7725 11.6999L12.7031 11.6774C12.5565 11.6126 11.9432 11.2618 11.8282 11.1739L11.8016 11.1699L11.7589 11.1422C11.5845 11.0528 11.3468 10.9039 11.1721 10.8021C11.078 10.7211 10.8911 10.6372 10.7741 10.5795C10.5152 10.4101 9.78716 10.0011 9.50959 9.85765C9.36108 9.74315 8.92597 9.51154 8.74633 9.40899L7.21458 8.53313L4.8573 7.17636C4.5663 7.00938 4.09862 6.71674 3.81326 6.57447C4.42805 6.28509 5.36055 5.70168 5.97416 5.35153L7.06609 4.72506C7.20431 4.64543 7.52259 4.4718 7.63616 4.38512C7.98932 4.63491 8.97274 5.16684 9.39632 5.40932L13.143 7.56217L14.4962 8.34206C14.7141 8.46752 15.0648 8.65438 15.2655 8.79129C15.622 8.55152 16.195 8.24828 16.581 8.0274L21.5416 5.1741C21.9471 4.94219 22.4979 4.60089 22.905 4.40473L29.7435 8.33478C29.9398 8.44766 30.3524 8.67011 30.5262 8.79402L30.526 4.38223C30.2351 4.25143 29.6384 3.88189 29.3431 3.7105L27.1752 2.46198L24.2979 0.810878C23.9447 0.60776 23.2212 0.220024 22.9029 0.00323732C21.33 0.894734 19.7617 1.79414 18.1979 2.70146Z" fill="#71767B"/>
<path d="M253.985 19.2194V3.61074H256.148V19.2194H253.985ZM265.089 19.2194V3.61074H267.252V19.2194H265.089ZM254.587 5.06011L256.148 3.61074L266.227 17.1903L265.089 19.2194L254.587 5.06011Z" fill="#71767B"/>
<path d="M226.578 19.2194V3.61074H228.741V19.2194H226.578ZM227.18 12.4185V10.4117H237.727V12.4185H227.18ZM227.18 5.61757V3.61074H238.619V5.61757H227.18ZM227.18 19.2194V17.2126H238.842V19.2194H227.18Z" fill="#71767B"/>
<path d="M202.965 19.5539C201.821 19.5539 200.802 19.3904 199.91 19.0633C199.033 18.7214 198.29 18.216 197.681 17.5471C197.071 16.8632 196.603 16.0085 196.276 14.9828C195.964 13.9571 195.808 12.7604 195.808 11.3928C195.808 8.62781 196.432 6.58382 197.681 5.2608C198.944 3.93778 200.877 3.27627 203.478 3.27627C204.667 3.27627 205.723 3.38032 206.644 3.58844C207.581 3.79656 208.361 4.13103 208.986 4.59185C209.625 5.05268 210.108 5.6473 210.435 6.3757C210.777 7.10411 210.948 7.9886 210.948 9.02918H208.874C208.874 8.24131 208.711 7.60953 208.384 7.13384C208.057 6.64328 207.633 6.26421 207.113 5.99663C206.592 5.72906 206.005 5.55067 205.351 5.46148C204.697 5.37229 204.036 5.32769 203.367 5.32769C202.4 5.32769 201.583 5.44661 200.914 5.68446C200.245 5.90744 199.695 6.27164 199.264 6.77707C198.848 7.26763 198.543 7.89197 198.35 8.65011C198.171 9.40824 198.082 10.315 198.082 11.3705C198.082 12.4408 198.201 13.3624 198.439 14.1354C198.677 14.9084 199.019 15.5477 199.464 16.0531C199.91 16.5436 200.46 16.9078 201.115 17.1457C201.769 17.3835 202.519 17.5025 203.367 17.5025C204.095 17.5025 204.742 17.3389 205.307 17.0119C205.886 16.67 206.399 16.2315 206.845 15.6963C207.306 15.1463 207.715 14.5368 208.072 13.8679C208.443 13.1841 208.77 12.5077 209.053 11.8387L210.324 12.1955C210.011 13.0577 209.632 13.9273 209.186 14.8044C208.741 15.6814 208.22 16.4767 207.626 17.1903C207.031 17.889 206.347 18.4613 205.574 18.9072C204.801 19.3383 203.932 19.5539 202.965 19.5539ZM208.986 19.2194V12.53H211.059V19.2194H208.986ZM203.545 13.1766V11.259H211.059V13.1766H203.545Z" fill="#71767B"/>
<path d="M168.847 19.2194V3.61074H171.01V19.2194H168.847ZM169.449 12.4185V10.4117H179.996V12.4185H169.449ZM169.449 5.61757V3.61074H180.888V5.61757H169.449ZM169.449 19.2194V17.2126H181.111V19.2194H169.449Z" fill="#71767B"/>
<path d="M146.739 19.5539C143.959 19.5539 141.893 18.8849 140.54 17.5471C139.202 16.2092 138.533 14.1577 138.533 11.3928C138.533 8.62781 139.158 6.58382 140.406 5.2608C141.67 3.93778 143.603 3.27627 146.204 3.27627C147.393 3.27627 148.449 3.38032 149.37 3.58844C150.307 3.79656 151.087 4.13103 151.712 4.59185C152.351 5.05268 152.834 5.6473 153.161 6.3757C153.503 7.10411 153.674 7.9886 153.674 9.02918H151.6C151.6 8.24131 151.437 7.60953 151.11 7.13384C150.783 6.64328 150.359 6.26421 149.839 5.99663C149.318 5.72906 148.731 5.55067 148.077 5.46148C147.423 5.37229 146.761 5.32769 146.092 5.32769C145.126 5.32769 144.309 5.44661 143.64 5.68446C142.971 5.90744 142.421 6.27164 141.99 6.77707C141.573 7.26763 141.269 7.89197 141.075 8.65011C140.897 9.40824 140.808 10.3225 140.808 11.3928C140.808 13.5185 141.306 15.072 142.302 16.0531C143.298 17.0193 144.821 17.5025 146.873 17.5025C147.453 17.5025 148.025 17.4653 148.59 17.391C149.17 17.3018 149.69 17.1383 150.151 16.9004C150.612 16.6477 150.983 16.2984 151.266 15.8524C151.548 15.3916 151.689 14.7747 151.689 14.0017H153.763C153.763 15.0422 153.592 15.9193 153.25 16.6328C152.923 17.3315 152.455 17.8964 151.845 18.3275C151.236 18.7586 150.493 19.0708 149.616 19.264C148.753 19.4573 147.795 19.5539 146.739 19.5539Z" fill="#71767B"/>
<path d="M109.359 19.2194L115.914 3.61074H118.255L111.7 19.2194H109.359ZM111.811 16.2984V14.2915H122.291V16.2984H111.811ZM124.789 19.2194H122.447L115.914 3.61074H118.255L124.789 19.2194Z" fill="#71767B"/>
<path d="M82.2932 19.2194V3.61074H84.4561V19.2194H82.2932ZM89.2725 14.024H82.2932V12.0171H89.2948C90.0678 12.0171 90.7144 11.9502 91.2347 11.8164C91.755 11.6827 92.1712 11.482 92.4834 11.2144C92.7956 10.9468 93.0186 10.6123 93.1524 10.211C93.301 9.80961 93.3753 9.34135 93.3753 8.8062C93.3753 8.27104 93.301 7.80278 93.1524 7.40141C93.0186 7.00005 92.7956 6.67301 92.4834 6.4203C92.1712 6.15272 91.755 5.95204 91.2347 5.81825C90.7144 5.68446 90.0678 5.61757 89.2948 5.61757H82.2932V3.61074H89.2725C90.4023 3.61074 91.3685 3.72223 92.1712 3.94521C92.974 4.15333 93.6281 4.48036 94.1335 4.92633C94.6538 5.35742 95.0328 5.90001 95.2707 6.55409C95.5085 7.1933 95.6275 7.944 95.6275 8.8062C95.6275 9.66839 95.5085 10.4265 95.2707 11.0806C95.0328 11.7198 94.6612 12.2624 94.1558 12.7084C93.6504 13.1395 92.9963 13.4665 92.1935 13.6895C91.3908 13.9125 90.4171 14.024 89.2725 14.024Z" fill="#71767B"/>
<path d="M59.7911 12.4408C58.8992 12.2475 58.0816 12.0469 57.3384 11.8387C56.5951 11.6306 55.9559 11.3556 55.4207 11.0137C54.8856 10.6569 54.4693 10.2184 54.172 9.69812C53.8747 9.17783 53.7261 8.51632 53.7261 7.71359C53.7261 6.13786 54.2612 5.00809 55.3315 4.32428C56.4018 3.6256 58.0816 3.27627 60.3709 3.27627C61.3669 3.27627 62.2662 3.37289 63.069 3.56614C63.8717 3.74453 64.5481 4.04183 65.0981 4.45807C65.6481 4.8743 66.0718 5.42432 66.3691 6.10813C66.6664 6.77707 66.815 7.6021 66.815 8.58321H64.7413C64.7413 7.86967 64.615 7.30479 64.3623 6.88856C64.1244 6.45746 63.7974 6.13786 63.3811 5.92974C62.9649 5.70676 62.4818 5.56554 61.9318 5.50608C61.3966 5.43175 60.8243 5.39459 60.2148 5.39459C59.4121 5.39459 58.7357 5.44662 58.1857 5.55067C57.6505 5.63986 57.2194 5.78109 56.8924 5.97434C56.5654 6.16759 56.3275 6.40543 56.1789 6.68788C56.0451 6.95545 55.9782 7.26763 55.9782 7.6244C55.9782 8.0109 56.0748 8.33794 56.268 8.60551C56.4762 8.87309 56.7735 9.11094 57.16 9.31905C57.5465 9.5123 58.0222 9.67582 58.587 9.80961C59.1668 9.9434 59.8283 10.0698 60.5716 10.1887C61.6122 10.3671 62.5338 10.5752 63.3365 10.813C64.1393 11.036 64.8082 11.3333 65.3434 11.7049C65.8934 12.0617 66.3022 12.5151 66.5698 13.0651C66.8522 13.6003 66.9934 14.2618 66.9934 15.0497C66.9934 16.6403 66.4434 17.7923 65.3434 18.5059C64.2433 19.2045 62.5189 19.5539 60.1702 19.5539C59.1445 19.5539 58.2228 19.4573 57.4052 19.264C56.5876 19.0856 55.889 18.7883 55.3092 18.3721C54.7443 17.9558 54.3058 17.4133 53.9936 16.7443C53.6963 16.0605 53.5477 15.228 53.5477 14.2469H55.6214C55.6214 14.9753 55.7478 15.5551 56.0005 15.9862C56.268 16.4173 56.6174 16.7443 57.0485 16.9673C57.4944 17.1903 57.9999 17.3389 58.5648 17.4133C59.1445 17.4727 59.7465 17.5025 60.3709 17.5025C61.8426 17.5025 62.9352 17.3166 63.6487 16.945C64.3623 16.5734 64.719 15.9862 64.719 15.1835C64.719 14.6037 64.5555 14.1577 64.2285 13.8456C63.9014 13.5185 63.4926 13.2732 63.0021 13.1097C62.5115 12.9313 61.9764 12.7976 61.3966 12.7084C60.8317 12.6192 60.2966 12.53 59.7911 12.4408Z" fill="#71767B"/>
</svg>
