<svg width="195" height="112" viewBox="0 0 195 112" fill="none" xmlns="http://www.w3.org/2000/svg">
<path d="M47.1163 75.4969C48.134 70.1722 49.3172 66.9552 50.5112 62.0404L59.569 25.5482C60.884 20.3287 61.989 15.0329 63.2328 9.79292C63.904 6.96417 64.4223 3.90292 65.625 1.24417C65.7655 0.933668 65.9492 0.605419 66.284 0.488919C68.2045 -0.179581 89.4628 -0.170329 90.7913 0.564671C91.4513 0.929921 91.6715 1.95167 91.8833 2.64867C93.2235 7.06092 94.0057 11.7187 95.181 16.1892C96.4525 21.0262 97.8683 25.8167 99.0755 30.6747C100.059 34.6314 100.828 38.6327 101.775 42.5967C104.384 53.5774 107.142 64.5224 110.048 75.4284C111.579 68.7064 113.394 62.1822 115.1 55.5089C117.883 44.1634 120.832 32.8594 123.948 21.6007C125.627 15.4699 126.868 9.15642 128.713 3.08243C128.925 2.38318 129.242 1.23292 129.773 0.70667C130.917 -0.42633 153.661 0.179918 156.992 0.309918C156.383 1.87792 155.828 4.01117 155.381 5.68117C153.346 13.2694 150.09 20.8839 148.299 28.5054C143.913 43.3487 138.474 58.0079 133.801 72.7777C131.376 80.5877 128.893 88.3789 126.351 96.1512C125.678 98.2777 122.38 109.754 121.446 109.803C118.477 109.96 99.9228 110.63 97.9458 109.73C96.0688 107.137 80.127 45.9209 78.6383 38.8237C77.0118 45.3397 75.1588 51.4752 73.3908 57.9359C70.735 67.9674 68.0228 77.9839 65.2545 87.9852C64.0885 92.2524 62.9805 96.5354 61.9308 100.833C61.273 103.505 60.4793 107.228 59.5278 109.692C57.5335 110.495 39.151 110.124 35.3845 110.236C32.1655 101.605 29.9757 93.1407 27.15 84.5372L6.01525 20.1727C4.72875 16.2359 3.434 12.3132 2.26725 8.33867C1.473 5.63317 0.98675 2.91592 0 0.27892L5.3075 0.186925C12.0137 0.0874249 20.9313 -0.0985809 27.5638 0.298169C28.4755 3.45317 29.2715 7.92117 30.2115 11.4634L41.811 54.7329C43.6405 61.6322 45.079 68.5939 47.1163 75.4969Z" fill="#EDEDEC"/>
<path d="M188.505 79.4078C192.488 83.7801 194.318 87.6959 194.185 93.7489C194.085 98.7099 192.033 103.431 188.476 106.891C184.455 110.726 179.739 111.724 174.392 111.582C163.839 111.299 156.661 102.18 157.115 92.0021C157.297 87.1291 159.441 82.5366 163.061 79.2691C167.623 75.1606 173.048 74.5641 178.848 74.9151C183.975 76.0298 184.462 76.2143 188.505 79.4078Z" fill="#EDEDEC"/>
</svg>
