<svg width="237" height="237" viewBox="0 0 237 237" fill="none" xmlns="http://www.w3.org/2000/svg">
<path d="M111.377 0.192383C176.558 -3.50037 232.36 46.4126 235.93 111.6C239.5 176.787 189.481 232.494 124.287 235.942C59.267 239.379 3.74001 189.524 0.179764 124.51C-3.38049 59.4961 46.3705 3.87538 111.377 0.192383ZM16.8885 102.732C42.2413 105.839 67.136 111.941 91.052 120.91C97.4398 123.272 103.652 126.375 109.977 128.897C112.425 129.874 115.502 131.522 117.974 132.147C119.542 131.465 121.541 130.66 123.044 129.921C126.93 128.4 130.618 126.804 134.433 125.127C149.257 118.611 165.377 113.407 181.112 109.596C189.973 107.438 198.914 105.629 207.917 104.174C211.223 103.618 215.823 103.223 218.788 102.606C217.263 95.8296 215.886 89.3846 213.446 82.8429C197.326 39.6319 157.463 14.6129 111.838 16.2454C82.2168 18.4436 55.6083 31.8259 37.3315 55.5396C25.6715 70.6684 20.9743 84.3569 16.8885 102.732ZM17.0345 134.828C43.3955 138.824 65.4678 144.518 90.2333 154.641C96.3825 157.155 104.304 161.687 109.765 163.735C109.681 157.912 109.527 150.145 109.773 144.416C105.983 143.147 101.567 141.027 97.8288 139.417C93.2625 137.504 88.6585 135.682 84.0195 133.952C72.325 129.619 60.7875 126.788 48.7908 123.49C42.2595 121.694 34.3263 120.502 27.6253 119.241C25.5658 118.853 17.5123 117.873 15.9243 117.292C15.853 123.99 16.2195 128.105 17.0345 134.828ZM126.06 144.73C126.067 150.428 126.308 157.735 126.105 163.287C126.387 163.535 126.291 163.556 126.529 163.543C149.035 152.085 172.955 143.647 197.67 138.449C204.383 136.967 212.655 136.16 218.683 134.682C218.573 131.603 219.35 127.421 219.56 124.2C219.663 122.648 219.643 118.924 219.873 117.761L219.623 117.548L219.513 117.567C215.969 117.811 209.942 118.941 206.276 119.555C195.841 121.302 185.51 123.644 175.388 126.729C171.589 127.888 166.968 128.813 163.329 129.994C154.107 132.989 144.549 136.53 135.638 140.344C132.94 141.499 128.425 143.369 126.06 144.73ZM192.101 187.733C185.191 190.651 176.899 192.186 169.661 195.052C154.809 200.931 140.221 207.618 126.672 216.124C125.397 216.917 120.62 219.294 120.169 220.142C120.585 220.349 120.371 220.339 120.806 220.264C135.439 219.534 149.775 215.867 162.961 209.48C164.384 208.8 168.474 206.833 169.624 206.124C172.939 204.078 192.213 190 192.566 187.674C192.222 187.655 192.33 187.595 192.101 187.733ZM42.7413 187.6C44.0105 189.511 46.9873 191.423 48.7708 193.024C53.055 196.869 60.2963 202.7 65.1065 205.537C74.254 210.933 86.6838 215.888 97.0908 218.029C99.21 218.464 114.169 220.459 115.81 220.357C114.583 218.902 109.67 216.478 107.776 215.36C92.819 206.531 76.7343 198.572 60.2675 192.98C58.6045 192.415 43.5818 187.648 42.7413 187.6ZM206.381 169.433C207.529 166.885 214.112 152.689 214.356 150.646L214.071 150.414L213.835 150.468C186.768 155.358 162.326 162.444 137.646 174.408C135.518 175.439 128.601 178.072 126.65 180.233C125.509 183.61 126.252 195.494 126.11 199.3C126.521 199.541 126.322 199.535 126.706 199.445C133.91 195.062 140.186 192.261 147.639 188.603C163.594 180.77 179.992 175.673 197.204 171.433C200.156 170.706 203.534 170.343 206.381 169.433ZM29.9488 169.72L30.2005 169.796C33.428 170.755 34.063 170.594 40.9968 172.148C64.9955 177.525 87.9853 187.536 109.501 199.486C109.64 199.438 109.779 199.39 109.917 199.342C109.455 197.153 109.765 182.863 109.912 180.151C88.223 168.775 65.2185 160.107 41.4155 154.34C36.5223 153.163 31.4438 152.3 26.5065 151.303C24.7768 150.953 22.5475 150.712 20.9258 150.32C23.5043 156.953 26.3608 163.583 29.9488 169.72Z" fill="white"/>
</svg>
