<svg width="2232" height="1892" viewBox="0 0 2232 1892" fill="none" xmlns="http://www.w3.org/2000/svg">
<g clip-path="url(#clip0_41_758)">
<path d="M2150.83 714.039L1401.55 35.5817C1269.32 94.2473 1158.67 192.746 1085.02 317.351C1084.91 318.63 1084.91 319.917 1085.02 321.197C1085.02 321.197 1085.02 321.197 1082.62 317.351C1056.2 271.671 794.434 -158.675 325.651 62.9892C-136.408 280.326 -79.2512 865.502 326.611 1254.5C699.332 1611.28 995.684 1860.83 1082.14 1891.12C1168.6 1860.83 1466.39 1611.28 1838.15 1254.5C1994.73 1110.35 2103.65 921.8 2150.35 714.039H2150.83Z" fill="white"/>
<path d="M2030.27 856.847C1669.08 856.847 1390.02 603.447 1390.02 200.508H1519.22C1519.35 336.2 1573.22 466.305 1669.02 562.299C1764.82 658.293 1894.73 712.342 2030.27 712.596C2083.6 712.393 2136.58 703.96 2187.33 687.593L2231.52 824.631C2166.54 845.844 2098.63 856.715 2030.27 856.847Z" fill="white"/>
<path d="M1401.55 35.5815C1392.91 76.0506 1388.4 117.294 1388.1 158.675C1387.78 250.855 1409.33 341.794 1450.97 424.01C1492.61 506.226 1553.15 577.371 1627.62 631.592C1702.09 685.812 1788.35 721.56 1879.31 735.893C1970.27 750.227 2063.33 742.736 2150.83 714.039L1401.55 35.5815Z" fill="white"/>
</g>
<defs>
<clipPath id="clip0_41_758">
<rect width="2231.52" height="1891.12" fill="white"/>
</clipPath>
</defs>
</svg>
