<svg width="1141" height="754" viewBox="0 0 1141 754" fill="none" xmlns="http://www.w3.org/2000/svg">
<g clip-path="url(#clip0_41_728)">
<path d="M330.522 3.2477e-05C361.508 3.2477e-05 392.495 2.95569 422.006 8.86704C447.09 14.7784 470.699 25.1232 492.832 39.9016C512.014 54.68 528.245 73.8919 538.574 96.0595C550.378 124.138 556.28 153.695 554.805 183.252C556.28 215.764 547.427 248.277 531.196 276.356C513.489 302.957 488.405 323.647 460.37 336.947C500.209 347.292 534.147 372.415 556.28 404.928C578.413 440.396 588.742 481.775 588.742 523.155C588.742 557.145 582.84 589.657 568.084 619.214C554.805 645.815 535.623 667.983 513.489 687.195C489.881 704.929 461.845 718.23 433.81 725.619C404.299 734.486 373.313 737.441 342.326 737.441H0V-1.47778H330.522V3.2477e-05ZM309.864 298.523C333.473 300.001 358.557 292.612 377.739 277.834C396.921 261.577 407.25 236.454 404.299 209.853C404.299 195.075 401.348 180.296 395.446 166.996C389.544 156.651 382.166 147.784 371.837 141.872C361.508 135.961 349.704 130.05 337.9 128.572C324.62 125.616 311.34 125.616 298.06 125.616H153.457V298.523H309.864ZM318.717 614.781C333.473 614.781 348.228 613.303 361.508 610.347C374.788 607.392 386.593 601.48 398.397 594.091C408.726 586.702 417.579 576.357 423.481 564.534C430.859 549.756 433.81 533.5 432.334 517.243C435.286 486.209 423.481 456.652 401.348 435.962C377.739 418.228 349.704 410.839 320.193 412.317H153.457V616.259H318.717V614.781Z" fill="white"/>
<path d="M807.123 611.825C832.207 633.993 864.669 645.815 897.131 644.338C923.691 644.338 948.775 636.948 969.432 622.17C987.139 610.347 998.943 594.091 1006.32 574.879H1128.79C1115.51 629.559 1083.05 678.328 1038.78 712.318C995.992 741.875 944.348 755.175 891.229 753.698C854.34 753.698 817.451 747.786 782.038 733.008C751.052 719.707 723.017 700.495 700.883 675.372C678.75 648.771 661.044 619.214 649.239 586.702C635.959 549.756 630.057 511.332 631.533 472.908C631.533 434.484 637.435 397.539 650.715 360.593C686.128 257.144 783.514 187.685 892.704 189.163C932.544 187.685 970.908 198.03 1006.32 215.764C1037.31 233.498 1065.34 257.144 1086 286.701C1106.66 317.735 1122.89 351.726 1130.27 388.672C1139.12 427.095 1142.07 468.475 1140.6 508.376H774.661C770.234 545.322 782.038 582.268 807.123 611.825ZM966.481 329.558C945.824 308.868 917.788 298.523 888.277 300.001C869.095 300.001 849.913 302.957 833.682 311.824C820.402 319.213 808.598 329.558 798.269 341.381C789.416 353.203 783.514 365.026 779.087 379.804C776.136 391.627 773.185 403.45 773.185 415.273H1000.42C997.468 384.238 985.663 354.681 966.481 329.558Z" fill="white"/>
<path d="M1026.98 48.7688H743.674V121.183H1026.98V48.7688Z" fill="white"/>
</g>
<defs>
<clipPath id="clip0_41_728">
<rect width="1140.6" height="753.698" fill="white"/>
</clipPath>
</defs>
</svg>
