<svg width="150" height="139" viewBox="0 0 150 139" fill="none" xmlns="http://www.w3.org/2000/svg">
<path d="M46.3265 0.213978C46.6975 0.181978 47.069 0.158226 47.441 0.142476C60.3275 -0.318524 73.6062 0.524729 86.533 0.0944791C87.7652 0.0534791 90.6007 -0.0347733 91.47 0.765477C90.4587 2.96548 82.1217 10.7062 80.0177 12.7227C74.3845 18.418 68.1862 24.2855 62.6522 29.9925C59.831 32.902 47.9107 43.6212 46.7767 46.4017C47.639 49.0357 61.8757 61.0325 64.4622 64.533C66.5777 66.9822 69.6347 69.219 71.7415 71.6102C78.0922 78.819 86.0187 84.775 92.1982 92.11C90.9402 94.196 82.8137 101.854 80.608 104.209C76.9882 106.906 72.6625 112.901 68.7705 114.701C64.9832 111.788 60.3452 106.567 56.7092 103.071C44.6885 91.512 33.0007 79.606 21.1435 67.884C16.476 63.2695 11.8935 58.5497 7.17322 53.9912C5.15772 52.0447 2.28572 50.1005 0.69472 47.8582C0.48372 47.5607 -0.0970355 46.463 0.0139645 46.1047C0.424465 44.7792 40.4195 4.98798 44.191 1.56848C44.84 0.979978 45.5365 0.580478 46.3265 0.213978Z" fill="white"/>
<path d="M80.5828 23.8345C81.3105 24.0547 82.6618 24.8215 83.1075 25.3205C89.1343 32.068 149.808 90.218 150.008 92.3852C149.487 94.8605 143.074 100.147 140.991 102.239L123.301 120.145C120.665 122.761 105.971 137.518 103.594 138.253C100.327 139.263 87.0213 138.65 82.8875 138.633C75.1285 138.572 65.4715 139.228 58.0728 138.425C62.6308 132.704 67.0668 128.947 72.212 123.953C75.796 120.43 79.3533 116.876 82.9833 113.4C89.9093 106.767 96.7155 98.5037 103.987 92.3807C101.982 89.758 99.1193 87.2732 96.8115 84.9025C94.639 82.4677 91.6493 80.2365 89.5065 77.8557C82.5915 70.1727 74.8498 63.3532 67.709 55.91C65.443 53.548 59.6578 49.0765 58.6465 46.3005C59.5445 44.7155 79.3995 24.5077 80.5828 23.8345Z" fill="white"/>
</svg>
