<svg width="972" height="972" viewBox="0 0 972 972" fill="none" xmlns="http://www.w3.org/2000/svg">
<g clip-path="url(#clip0_41_723)">
<path fill-rule="evenodd" clip-rule="evenodd" d="M0 485.61C0 217.007 217.007 0 485.61 0C754.213 0 971.22 217.007 971.22 485.61C971.22 754.213 754.213 971.22 485.61 971.22H446.154V969.703C197.279 949.975 0 740.555 0 485.61ZM497.75 892.308C716.275 886.238 892.308 705.652 892.308 485.61C892.308 261.015 710.205 78.9116 485.61 78.9116C261.015 78.9116 78.9116 261.015 78.9116 485.61C78.9116 710.205 261.015 892.308 485.61 892.308H497.75Z" fill="white"/>
<path fill-rule="evenodd" clip-rule="evenodd" d="M288.331 130.508C282.261 128.99 277.708 127.473 271.638 124.438L297.436 50.0785C300.471 51.5961 303.506 51.5961 309.576 53.1136C318.682 56.1486 329.304 59.1837 335.375 62.2188C336.892 62.2188 338.41 63.7363 341.445 63.7363C352.067 68.2889 364.208 72.8415 374.83 77.3941L376.348 78.9116C380.9 81.9467 388.488 84.9817 394.558 88.0168C397.593 89.5343 400.628 91.0519 403.663 92.5694H405.181H406.698C408.216 94.0869 412.769 95.6045 417.321 98.6395H418.839C418.839 98.6395 420.356 98.6395 420.356 100.157C420.356 100.157 421.874 100.157 421.874 101.675C421.874 101.675 421.874 101.675 423.391 101.675C423.391 101.675 423.391 101.675 424.909 101.675C424.909 101.675 426.426 101.675 426.426 103.192C429.461 104.71 434.014 107.745 437.049 109.262C441.602 112.297 447.672 115.332 452.224 118.367C456.777 121.402 462.847 125.955 467.4 127.473L468.917 128.99C471.952 130.508 474.987 132.025 476.505 133.543C479.54 135.06 482.575 138.095 485.61 139.613C487.128 141.13 488.645 141.13 488.645 142.648C490.163 144.165 491.68 144.165 493.198 145.683C494.715 147.201 494.715 147.201 496.233 147.201C496.233 147.201 496.233 147.201 497.75 147.201H499.268H500.785C544.794 180.586 582.732 218.524 616.118 262.533C652.539 311.094 681.372 364.208 701.1 421.874C760.283 588.802 743.59 780.011 649.503 931.764L582.732 890.791C663.161 760.283 678.337 593.355 626.741 447.672C610.048 399.111 584.25 352.067 552.382 311.094C523.548 273.156 490.163 239.77 452.224 210.937C450.707 209.419 447.672 207.902 446.154 206.384C444.637 204.867 443.119 203.349 441.602 203.349C440.084 201.832 440.084 201.832 438.567 200.314C435.532 198.797 434.014 195.762 430.979 194.244C429.461 192.726 427.944 192.726 427.944 192.726H426.426V197.279C424.909 195.762 421.874 194.244 420.356 194.244C417.321 191.209 414.286 189.691 411.251 188.174L409.734 186.656L408.216 185.139C408.216 185.139 406.698 185.139 405.181 183.621C403.663 182.104 400.628 180.586 397.593 179.069C394.558 177.551 390.006 174.516 388.488 172.999C386.971 172.999 385.453 171.481 385.453 171.481L383.935 169.963C382.418 169.963 382.418 168.446 380.9 168.446C380.9 168.446 379.383 166.928 377.865 166.928C376.348 165.411 374.83 165.411 371.795 163.893C368.76 162.376 365.725 160.858 362.69 159.341C356.62 156.306 350.55 153.271 344.48 151.753L342.962 150.236C335.375 147.201 326.269 144.165 317.164 139.613C312.612 138.095 311.094 136.578 308.059 136.578C301.989 133.543 295.919 132.025 288.331 130.508Z" fill="white"/>
<path fill-rule="evenodd" clip-rule="evenodd" d="M455.259 317.164C573.627 295.919 684.407 229.147 758.766 133.543L820.984 182.104C732.968 292.884 607.013 370.278 468.917 394.558C400.628 406.698 329.304 406.698 261.015 394.558C192.727 382.418 125.955 358.137 65.2539 321.717L106.227 254.945C157.823 285.296 215.49 308.059 274.673 318.682C333.857 327.787 394.558 327.787 455.259 317.164Z" fill="white"/>
<path fill-rule="evenodd" clip-rule="evenodd" d="M244.323 884.721C311.094 541.759 661.644 352.067 946.94 429.461L925.694 505.338C682.889 438.566 379.383 602.46 320.199 899.896L244.323 884.721Z" fill="white"/>
</g>
<defs>
<clipPath id="clip0_41_723">
<rect width="971.22" height="971.22" fill="white"/>
</clipPath>
</defs>
</svg>
