<svg width="235" height="146" viewBox="0 0 235 146" fill="none" xmlns="http://www.w3.org/2000/svg">
<path d="M217.472 0.200479C220.619 -0.215021 230.417 0.135977 234.042 0.187227C231.824 5.25448 224.294 15.007 220.937 19.9257L193.64 60.3235L159.606 111.02L147.742 128.683C144.372 133.782 140.033 140.625 136.261 145.359C132.496 141.986 126.458 131.831 123.282 127.211L88.8376 76.117C86.3239 72.4047 83.8084 68.6672 81.2986 64.9512C79.5991 62.4347 78.3709 60.0012 76.4694 57.5135C74.9936 55.3887 73.4181 53.2787 72.0511 51.0865C68.2139 44.9327 63.8971 39.5482 60.3486 33.1855C64.8614 33.1377 69.3814 33.065 73.8936 33.0955C76.1834 33.111 77.3871 33.2562 78.7206 35.179C87.1184 47.287 95.1136 59.6622 103.188 71.9885C113.817 88.2142 125.845 104.288 135.693 120.958C138.688 116.718 141.484 111.755 144.403 107.406L169.101 71.3272C178.382 57.58 187.461 42.9265 196.998 29.3835C199.952 25.189 215.109 1.47298 217.472 0.200479Z" fill="white"/>
<path d="M0 0.211339C4.708 0.123339 12.5895 -0.271158 16.9375 0.587842C20.3073 4.52359 23.4012 9.97059 26.3355 14.2768C30.885 20.9538 35.403 28.0568 39.9665 34.6746L57.1957 60.0268C59.5657 63.5816 61.872 67.3453 64.2603 70.8443L95.543 117.379C97.9918 121.03 104.314 129.025 105.997 133.387C106.365 134.34 102.551 139.255 101.627 140.535C100.423 142.283 99.3888 143.802 98.3115 145.627C94.7773 142.279 88.7373 132.334 85.9408 128.134L68.664 102.519L8.97025 14.3763C7.88925 12.7473 0.06775 0.957589 0 0.211339Z" fill="white"/>
<path d="M179.859 0.166818C182.138 0.0475684 193.545 -0.142928 195.197 0.458322C195.396 2.05807 179.4 24.8088 177.446 27.7576C164.904 47.0401 152.038 66.1088 138.852 84.9561C137.858 86.5033 137.065 87.6741 135.951 89.1366C134.629 87.8381 126.959 78.3506 127.685 76.3308C128.069 75.2626 131.419 70.3793 132.223 69.1493L143.27 52.6181C150.208 41.9471 157.281 31.3648 164.489 20.8746C168.807 14.5971 173.332 8.53907 177.283 1.95857C177.813 1.07507 178.911 0.517318 179.859 0.166818Z" fill="white"/>
</svg>
